<?xml version="1.0" standalone="no"?>
<!DOCTYPE svg PUBLIC "-//W3C//DTD SVG 20010904//EN"
 "http://www.w3.org/TR/2001/REC-SVG-20010904/DTD/svg10.dtd">
<svg version="1.0" xmlns="http://www.w3.org/2000/svg"
 width="400.000000pt" height="400.000000pt" viewBox="0 0 400.000000 400.000000"
 preserveAspectRatio="xMidYMid meet">

<g transform="translate(0.000000,400.000000) scale(0.100000,-0.100000)"
fill="#000000" stroke="none">
<path d="M1810 3540 c-361 -50 -656 -195 -911 -450 -230 -229 -367 -485 -431
-803 -32 -160 -32 -424 0 -584 64 -318 201 -574 431 -803 230 -230 474 -361
801 -431 152 -33 448 -33 600 0 327 70 571 201 801 431 230 229 367 485 431
803 32 160 32 424 0 584 -64 318 -201 574 -431 803 -229 229 -477 363 -796
430 -114 24 -386 35 -495 20z m357 -51 c503 -56 945 -363 1176 -817 112 -219
160 -424 160 -677 0 -252 -41 -433 -152 -660 -179 -367 -488 -635 -880 -765
-165 -55 -285 -73 -471 -73 -186 0 -306 18 -471 73 -392 130 -701 398 -880
765 -111 227 -152 408 -152 660 0 253 48 458 160 677 287 563 886 887 1510
817z"/>
<path d="M2044 3416 c-39 -17 -54 -57 -54 -142 0 -83 27 -119 90 -119 60 0 86
33 95 120 9 82 -5 122 -51 141 -40 17 -41 17 -80 0z m71 -53 c14 -13 16 -29
12 -75 -6 -62 -19 -88 -46 -88 -30 0 -41 23 -41 86 0 85 34 119 75 77z"/>
<path d="M1725 3401 c-49 -10 -80 -21 -79 -29 1 -7 2 -17 3 -23 0 -6 15 -9 33
-7 l32 3 21 -104 c11 -58 25 -106 30 -108 6 -1 17 1 25 7 12 8 12 22 -6 114
l-20 104 34 7 c25 5 32 10 28 21 -3 9 -6 20 -6 25 0 11 6 11 -95 -10z"/>
<path d="M1884 3323 c11 -159 14 -175 39 -171 12 2 22 8 22 13 0 6 -4 65 -9
133 -8 122 -8 122 -33 122 l-25 0 6 -97z"/>
<path d="M2261 3363 c-31 -119 -53 -214 -50 -217 2 -2 13 -6 23 -8 16 -2 22 8
37 65 9 38 19 70 22 73 2 2 17 -35 33 -83 23 -70 33 -88 48 -88 16 0 25 20 52
125 26 94 31 126 21 132 -27 17 -36 5 -53 -67 -10 -41 -20 -72 -23 -69 -3 3
-17 42 -31 87 -21 67 -30 83 -47 85 -18 3 -24 -4 -32 -35z"/>
<path d="M1493 3333 c-10 -3 -13 -41 -13 -142 0 -76 3 -141 6 -144 13 -12 44
14 44 37 0 19 9 28 42 41 40 16 42 16 57 -3 13 -16 21 -18 40 -11 l23 9 -38
48 c-145 179 -140 174 -161 165z m87 -154 c0 -6 -42 -21 -46 -16 -1 1 -5 22
-8 47 l-7 45 31 -35 c16 -19 30 -37 30 -41z"/>
<path d="M2507 3192 c-96 -96 -97 -99 -74 -109 19 -9 28 -8 40 4 14 14 20 15
54 2 31 -12 39 -20 41 -46 3 -32 30 -53 42 -33 10 16 33 258 25 270 -13 21
-33 8 -128 -88z m79 -38 c-8 -38 -9 -39 -37 -24 -19 11 -18 12 8 47 30 38 39
31 29 -23z"/>
<path d="M1305 3246 c-17 -12 -17 -16 18 -73 21 -33 37 -64 37 -68 0 -4 -34
12 -76 34 -131 71 -140 53 -48 -98 59 -97 69 -109 85 -100 26 13 24 20 -16 83
-19 30 -35 58 -35 61 0 3 36 -13 80 -35 65 -33 84 -38 100 -30 19 10 16 17
-46 118 -36 59 -69 110 -73 115 -4 4 -15 1 -26 -7z"/>
<path d="M2705 3101 c-38 -55 -70 -105 -70 -111 0 -6 27 -31 60 -55 43 -31 63
-40 73 -33 20 17 14 32 -28 61 -22 16 -40 31 -40 35 0 4 27 45 60 91 46 65 57
87 49 98 -6 7 -17 13 -23 13 -6 0 -42 -45 -81 -99z"/>
<path d="M1828 3094 c-234 -36 -448 -145 -618 -314 -367 -368 -431 -922 -158
-1371 66 -108 242 -286 350 -353 400 -247 912 -224 1277 58 68 53 183 172 234
242 86 119 162 309 187 466 18 112 8 351 -20 451 -151 558 -688 909 -1252 821z
m210 -134 c17 -16 44 -32 59 -36 83 -19 106 -27 145 -57 45 -34 88 -105 88
-144 0 -13 13 -42 30 -64 16 -23 32 -56 36 -74 6 -31 7 -33 44 -28 21 3 55 0
76 -7 20 -7 72 -13 113 -14 108 -1 144 -28 225 -159 9 -15 29 -32 44 -38 46
-17 54 -36 32 -79 -16 -31 -18 -51 -14 -102 4 -35 1 -81 -5 -104 -16 -58 -63
-118 -109 -140 -22 -11 -46 -31 -55 -46 -8 -15 -33 -39 -54 -55 -36 -26 -38
-30 -26 -53 7 -14 13 -46 13 -71 0 -26 9 -66 20 -90 40 -89 20 -181 -58 -272
-27 -31 -42 -58 -42 -75 0 -45 -13 -55 -77 -57 -32 -1 -85 -12 -118 -25 -93
-34 -169 -19 -247 49 -18 15 -46 31 -63 35 -16 4 -44 19 -62 32 l-32 25 -42
-31 c-23 -16 -50 -30 -60 -30 -9 0 -35 -15 -58 -34 -85 -71 -187 -84 -282 -36
-33 17 -53 21 -90 17 -55 -7 -63 0 -72 57 -4 26 -18 52 -41 75 -74 78 -96 180
-57 266 10 22 18 61 18 87 1 26 8 60 16 76 14 28 13 30 -20 47 -19 10 -42 32
-51 48 -9 16 -40 44 -69 63 -29 18 -65 52 -80 75 -26 39 -28 50 -29 143 0 70
-5 110 -16 131 -20 38 -14 52 28 70 18 7 42 29 53 47 48 81 73 108 126 134 46
22 65 26 111 22 35 -3 72 1 98 9 22 8 57 13 77 10 35 -5 37 -3 42 30 4 19 18
50 32 68 14 19 25 38 25 43 0 34 35 113 62 141 38 39 120 81 160 81 15 0 43
14 68 35 23 19 45 35 49 35 5 0 22 -13 39 -30z"/>
<path d="M1974 2876 c-11 -8 -48 -21 -82 -29 -34 -8 -73 -22 -87 -31 -37 -24
-65 -75 -65 -117 0 -25 -7 -42 -25 -59 -29 -27 -49 -82 -41 -114 l6 -23 57 28
c163 80 364 79 524 -1 l57 -29 6 22 c8 32 -3 69 -32 99 -16 17 -28 46 -33 79
-14 86 -45 119 -134 140 -41 9 -92 28 -125 46 -3 2 -15 -3 -26 -11z"/>
<path d="M1857 2505 c-90 -25 -160 -67 -233 -139 -106 -106 -154 -220 -154
-366 0 -342 316 -593 649 -515 260 62 439 319 402 579 -29 210 -176 380 -380
440 -66 19 -215 20 -284 1z m77 -129 c19 -6 20 -7 4 -17 -10 -5 -18 -21 -18
-34 0 -26 -14 -33 -26 -14 -3 6 -17 8 -31 4 -23 -5 -25 -4 -19 19 3 14 2 28
-4 31 -16 10 -11 25 9 25 10 0 25 7 32 16 12 15 14 14 22 -4 5 -11 19 -23 31
-26z m190 29 c3 -8 17 -15 32 -15 23 0 25 -2 13 -16 -8 -9 -12 -28 -11 -41 3
-21 0 -23 -21 -18 -14 4 -28 2 -31 -4 -12 -19 -26 -12 -26 14 0 13 -8 28 -17
34 -16 8 -15 11 10 20 15 6 27 17 27 26 0 19 16 20 24 0z m-383 -164 l22 -8
-22 -15 c-15 -10 -19 -21 -14 -33 5 -15 3 -17 -13 -10 -10 4 -29 7 -42 6 -17
-1 -22 4 -21 17 2 9 -2 27 -9 40 -12 20 -11 22 11 22 14 0 30 7 38 16 12 14
14 14 21 -5 4 -12 17 -25 29 -30z m604 19 c26 0 33 -14 14 -26 -6 -3 -9 -17
-6 -31 4 -22 2 -24 -19 -20 -14 2 -27 0 -30 -4 -9 -16 -24 -9 -24 11 0 10 -10
25 -22 31 l-23 12 26 9 c15 5 30 19 33 31 6 20 7 21 17 5 5 -10 21 -18 34 -18z
m-207 -112 c-3 -23 -6 -23 -138 -23 -132 0 -135 0 -138 23 -3 22 -3 22 138 22
141 0 141 0 138 -22z m0 -85 c3 -23 3 -23 -137 -23 -130 0 -141 1 -141 18 0
10 3 22 7 26 4 3 66 5 137 4 127 -3 131 -4 134 -25z m-498 -8 c0 -7 9 -17 20
-20 24 -8 26 -21 5 -29 -8 -3 -15 -18 -15 -33 0 -25 -1 -26 -16 -11 -13 12
-23 14 -41 7 -21 -8 -23 -7 -17 16 4 15 1 32 -6 40 -10 12 -9 15 9 15 11 0 26
9 33 19 13 21 28 19 28 -4z m782 -15 c16 0 18 -3 9 -14 -7 -8 -9 -25 -6 -39 6
-22 4 -24 -19 -20 -14 3 -33 0 -41 -7 -13 -10 -15 -9 -15 10 0 13 -7 32 -17
42 -15 17 -15 18 1 18 9 0 22 11 28 25 11 24 11 25 25 5 8 -11 23 -20 35 -20z
m-312 -60 c0 -19 -7 -20 -109 -20 -105 0 -130 7 -116 30 4 6 53 10 116 10 102
0 109 -1 109 -20z m15 -85 c0 -19 -8 -20 -119 -23 -121 -3 -144 3 -133 33 6
13 24 15 129 13 115 -3 123 -4 123 -23z m20 -80 c0 -19 -8 -20 -139 -23 -141
-3 -164 2 -153 33 6 13 26 15 149 13 135 -3 143 -4 143 -23z m35 -85 c0 -19
-7 -20 -179 -20 -109 0 -182 4 -186 10 -16 25 13 30 186 30 172 0 179 -1 179
-20z m25 -85 c0 -19 -8 -20 -199 -23 -117 -1 -204 2 -209 7 -5 5 -7 17 -4 26
6 13 32 15 209 13 195 -3 203 -4 203 -23z m13 -82 l3 -23 -220 0 c-208 0 -221
1 -221 18 0 10 3 22 7 26 4 3 102 5 217 4 210 -3 211 -3 214 -25z"/>
<path d="M2428 2479 c-51 -14 -52 -19 -5 -68 55 -57 106 -137 138 -216 21 -53
23 -77 24 -202 l0 -142 25 6 c43 10 59 23 79 61 13 26 30 41 54 50 45 16 97
74 98 110 7 180 5 201 -24 228 -15 15 -36 43 -47 64 -39 77 -115 114 -188 92
-20 -7 -40 -8 -46 -3 -20 16 -81 28 -108 20z"/>
<path d="M1477 2464 c-22 -12 -35 -13 -67 -4 -78 21 -134 -10 -195 -110 -16
-25 -35 -50 -43 -56 -18 -13 -25 -164 -10 -225 9 -42 50 -87 91 -101 16 -6 40
-28 53 -50 22 -34 72 -68 102 -68 5 0 5 22 0 53 -15 79 -4 201 26 287 27 78
93 184 145 234 24 23 28 33 20 43 -15 17 -87 16 -122 -3z"/>
<path d="M2521 1714 c-73 -142 -239 -264 -404 -299 -38 -7 -71 -16 -74 -19 -3
-3 10 -21 30 -41 23 -23 44 -35 63 -35 20 0 41 -13 71 -42 36 -36 49 -42 95
-46 42 -3 67 2 115 22 35 14 73 26 87 26 17 0 27 8 34 28 5 15 28 48 51 73 66
75 77 126 40 194 -15 28 -21 55 -20 92 2 44 -2 56 -26 83 l-28 31 -34 -67z"/>
<path d="M1410 1743 c-16 -20 -20 -39 -19 -77 1 -36 -5 -63 -20 -91 -37 -69
-24 -125 47 -208 23 -27 45 -59 48 -73 5 -20 12 -24 43 -24 20 0 49 -7 64 -15
90 -47 153 -40 223 24 28 26 53 41 70 41 16 0 39 13 61 35 20 20 34 37 32 40
-3 2 -38 11 -79 19 -118 25 -212 76 -300 165 -44 44 -88 100 -105 133 -17 32
-33 58 -37 58 -4 0 -16 -12 -28 -27z"/>
<path d="M1014 3040 c-20 -20 -20 -25 -9 -91 7 -38 9 -69 6 -69 -3 0 -22 17
-43 37 -37 36 -38 36 -53 17 -13 -18 -8 -25 83 -110 90 -86 98 -91 115 -76 17
15 16 17 -11 46 -30 32 -48 76 -30 76 5 0 35 -7 65 -16 51 -15 56 -15 74 2 24
22 20 24 -76 49 -38 10 -72 19 -74 21 -2 2 -9 33 -15 69 l-11 66 -21 -21z"/>
<path d="M2948 2937 c-45 -42 -80 -83 -84 -98 -7 -31 17 -84 45 -99 51 -27 89
-9 198 91 36 33 42 43 32 55 -6 8 -15 14 -20 14 -4 0 -38 -27 -76 -60 -67 -59
-98 -71 -121 -48 -23 23 -12 44 64 113 72 67 75 71 57 87 -17 16 -22 13 -95
-55z"/>
<path d="M834 2810 c-32 -13 -54 -50 -54 -91 0 -30 7 -43 35 -68 40 -35 106
-71 130 -71 54 0 102 62 90 113 -9 33 -64 83 -119 108 -46 21 -52 21 -82 9z
m90 -72 c60 -40 75 -61 60 -85 -18 -29 -41 -27 -95 7 -63 41 -77 65 -53 91 23
26 31 24 88 -13z"/>
<path d="M3088 2727 c-59 -34 -108 -67 -108 -72 0 -6 5 -16 12 -23 8 -8 27 -3
75 24 34 20 63 32 63 27 0 -4 -18 -41 -41 -82 -36 -66 -38 -76 -25 -89 13 -14
24 -10 98 33 46 27 95 56 110 64 29 17 33 27 19 50 -8 12 -21 8 -71 -23 -35
-20 -64 -35 -67 -33 -2 2 15 38 37 79 38 72 44 108 16 108 -6 0 -59 -29 -118
-63z"/>
<path d="M710 2587 c-39 -20 -56 -58 -45 -104 9 -33 17 -41 69 -67 33 -15 76
-31 97 -33 33 -5 42 -1 69 25 58 58 35 116 -64 163 -67 32 -89 35 -126 16z
m108 -62 c55 -26 72 -47 55 -74 -16 -25 -39 -25 -99 -1 -58 24 -78 56 -54 85
17 21 37 19 98 -10z"/>
<path d="M3210 2501 c-96 -40 -114 -51 -112 -67 2 -10 5 -21 7 -23 2 -2 58 18
125 45 102 40 120 51 118 68 -2 11 -7 20 -13 22 -5 1 -62 -19 -125 -45z"/>
<path d="M3253 2385 c-62 -41 -113 -79 -113 -85 0 -21 53 -30 171 -30 89 0
119 3 119 13 -1 29 -18 36 -100 39 l-85 3 73 43 c39 24 72 47 72 52 0 15 -12
40 -19 39 -3 0 -57 -34 -118 -74z"/>
<path d="M645 2371 c-12 -5 -27 -16 -34 -24 -15 -19 -41 -126 -32 -131 11 -7
252 -58 255 -55 2 2 6 14 10 26 6 19 2 22 -44 28 l-50 7 6 51 c5 46 3 55 -18
74 -28 26 -65 35 -93 24z m65 -91 c0 -35 -12 -43 -50 -35 -26 6 -29 10 -24 33
14 60 74 61 74 2z"/>
<path d="M3420 2204 c-8 -2 -67 -8 -130 -14 l-116 -12 9 -81 c4 -45 9 -83 11
-84 1 -1 11 0 22 3 18 5 20 12 16 65 l-4 59 30 0 c30 0 32 -2 38 -50 7 -50 10
-55 37 -45 10 5 13 18 9 55 -5 50 -4 50 25 50 26 0 31 -5 37 -31 3 -17 6 -42
6 -55 0 -19 5 -24 25 -24 25 0 25 0 19 73 -7 81 -12 94 -34 91z"/>
<path d="M615 2120 c-49 -19 -71 -75 -50 -127 18 -42 47 -53 140 -53 70 0 75
2 99 31 29 35 33 74 10 107 -19 28 -39 38 -91 47 l-43 7 0 -51 c0 -44 3 -51
20 -51 13 0 20 7 20 20 0 13 7 20 19 20 25 0 43 -24 39 -52 -3 -21 -8 -23 -81
-26 -75 -3 -77 -2 -89 24 -11 23 -10 28 11 45 29 24 27 70 -4 59z"/>
<path d="M3190 1957 c0 -22 5 -25 50 -31 39 -5 50 -11 50 -25 0 -12 -15 -22
-55 -35 -50 -15 -55 -20 -55 -46 l0 -29 55 21 56 21 22 -22 c25 -23 75 -28
107 -11 22 12 40 67 40 121 l0 37 -87 6 c-49 4 -109 9 -135 12 -46 6 -48 5
-48 -19z m204 -43 c9 -3 16 -17 16 -29 0 -29 -27 -58 -47 -51 -8 3 -17 6 -19
6 -2 0 -4 18 -4 40 0 41 13 50 54 34z"/>
<path d="M662 1872 c-94 -14 -103 -18 -100 -36 3 -23 32 -26 118 -14 l45 7
-50 -42 c-27 -23 -60 -51 -73 -63 -17 -14 -23 -26 -18 -40 6 -20 6 -20 136 0
125 19 130 21 130 44 0 26 -2 26 -130 5 -22 -3 -31 -2 -25 4 6 5 38 33 73 62
71 61 82 92 30 90 -18 -1 -79 -9 -136 -17z"/>
<path d="M3170 1738 c-24 -39 -26 -95 -5 -125 9 -12 31 -25 51 -29 41 -8 69
12 91 64 11 26 19 33 36 30 27 -4 34 -40 14 -72 -12 -17 -12 -25 -2 -39 11
-15 14 -15 34 7 13 13 25 42 28 64 5 34 1 45 -20 66 -18 18 -37 26 -60 26 -36
0 -55 -16 -75 -63 -14 -33 -37 -44 -58 -26 -17 14 -12 54 12 80 17 18 9 49
-12 49 -8 0 -23 -15 -34 -32z"/>
<path d="M711 1609 c-98 -33 -106 -39 -89 -62 12 -16 20 -14 105 16 98 34 125
32 131 -10 4 -28 -23 -47 -116 -78 -73 -25 -82 -31 -76 -49 4 -12 8 -22 9 -24
5 -6 188 67 205 83 57 52 10 158 -68 154 -9 0 -55 -14 -101 -30z"/>
<path d="M3106 1553 c-9 -23 -4 -26 114 -71 132 -52 130 -51 140 -26 8 20 0
25 -113 68 -67 25 -125 46 -128 46 -4 0 -10 -8 -13 -17z"/>
<path d="M3046 1424 c-3 -9 -6 -17 -6 -19 0 -3 43 -27 96 -56 75 -40 94 -55
88 -68 -15 -37 -15 -49 2 -55 9 -3 18 -5 19 -4 1 2 21 37 43 78 40 72 41 76
22 88 -17 10 -21 8 -37 -18 l-17 -30 -92 50 c-51 28 -97 50 -102 50 -6 0 -13
-7 -16 -16z"/>
<path d="M923 1385 c-30 -18 -62 -27 -110 -31 -109 -8 -115 -11 -100 -35 11
-18 18 -20 71 -14 l59 6 -36 -48 c-30 -41 -33 -51 -23 -66 7 -9 16 -17 19 -17
2 0 26 31 51 68 32 47 60 75 91 92 47 26 49 28 39 54 -8 21 -11 20 -61 -9z"/>
<path d="M994 1227 l-31 -82 -54 -3 c-78 -4 -86 -8 -63 -33 17 -19 27 -21 87
-16 l69 4 -42 -42 c-35 -36 -39 -43 -26 -54 19 -16 22 -14 134 78 78 65 88 77
78 93 -14 23 -19 23 -54 -7 -30 -25 -72 -34 -72 -14 0 6 10 33 21 60 19 43 20
53 9 74 -7 14 -16 25 -19 25 -3 0 -20 -37 -37 -83z"/>
<path d="M2941 1261 c-9 -15 -3 -23 35 -50 33 -24 54 -52 80 -104 20 -40 38
-74 40 -76 3 -3 12 3 22 12 16 17 15 20 -11 66 -15 27 -27 51 -27 54 0 3 23
-1 52 -9 47 -12 54 -12 70 3 10 9 15 20 11 24 -5 4 -43 14 -87 23 -56 11 -89
25 -116 46 -44 35 -56 37 -69 11z"/>
<path d="M2685 1024 c-145 -75 -193 -112 -167 -127 4 -3 45 17 92 43 46 27 88
46 92 44 5 -3 17 -23 28 -45 20 -37 42 -50 55 -29 5 9 -49 115 -64 124 -4 3
-20 -2 -36 -10z"/>
<path d="M1325 1009 c-9 -13 -8 -14 37 -32 25 -11 36 -21 32 -30 -8 -21 -49
-40 -91 -42 -26 0 -38 -5 -38 -15 0 -20 68 -25 106 -9 29 12 79 62 79 80 0 9
-92 59 -109 59 -5 0 -13 -5 -16 -11z"/>
<path d="M1445 922 c-3 -8 -4 -16 -3 -16 2 -1 16 -8 32 -14 19 -9 26 -16 19
-23 -7 -7 -19 -6 -37 2 -23 11 -29 10 -36 -2 -7 -10 -2 -18 20 -28 23 -11 28
-19 24 -37 -4 -16 -1 -23 12 -26 14 -2 26 13 51 65 18 38 33 72 33 77 0 14
-33 21 -41 8 -6 -10 -15 -10 -38 -1 -25 9 -31 8 -36 -5z"/>
<path d="M2672 913 c-9 -4 -6 -17 14 -51 26 -44 26 -46 8 -59 -21 -15 -23 -14
-57 48 -16 29 -19 31 -33 17 -14 -14 -14 -20 8 -57 l23 -41 -23 -16 c-17 -12
-20 -19 -12 -29 8 -10 35 1 130 54 66 36 119 71 120 78 0 22 -18 23 -60 0 -24
-12 -44 -18 -46 -12 -9 24 -44 75 -51 74 -5 0 -14 -3 -21 -6z"/>
<path d="M2405 900 c-6 -9 28 -157 39 -167 3 -3 12 -3 20 0 12 5 14 15 9 38
-4 23 -2 34 10 41 21 11 11 38 -14 38 -14 0 -21 9 -25 30 -6 29 -27 40 -39 20z"/>
<path d="M1605 888 c-19 -57 -23 -89 -12 -93 63 -20 209 -55 216 -51 5 3 12
22 15 42 4 19 9 41 12 48 3 8 -4 16 -15 19 -12 3 -21 1 -21 -4 0 -13 -22 -11
-90 8 -35 9 -60 22 -60 30 0 17 -39 17 -45 1z m123 -69 c29 -7 52 -18 52 -25
0 -9 -9 -10 -32 -4 -18 5 -52 14 -75 20 -24 6 -43 16 -43 22 0 6 9 8 23 4 12
-3 46 -11 75 -17z"/>
<path d="M2268 882 c-10 -2 -18 -10 -18 -17 0 -8 -10 -15 -22 -17 -13 -2 -24
-11 -26 -21 -3 -17 0 -18 28 -12 33 7 33 7 16 -16 -36 -52 -7 -109 57 -109 33
0 77 40 77 70 0 23 -33 60 -55 60 -24 0 -17 18 7 22 13 2 24 11 26 22 4 16 0
18 -31 12 -19 -4 -37 -3 -39 2 -1 4 -11 6 -20 4z m60 -104 c18 -18 15 -36 -7
-48 -27 -14 -51 -2 -51 25 0 32 35 46 58 23z"/>
<path d="M1290 810 c-60 -60 39 -160 135 -136 59 15 53 99 -9 137 -41 25 -100
25 -126 -1z m94 -24 c42 -18 57 -54 30 -73 -33 -24 -104 8 -104 48 0 10 8 23
18 28 22 13 17 13 56 -3z"/>
<path d="M1890 715 l0 -115 60 0 c47 0 60 3 60 15 0 11 -11 15 -40 15 l-40 0
0 80 0 80 35 0 c28 0 35 4 35 20 0 18 -7 20 -55 20 l-55 0 0 -115z"/>
<path d="M2030 710 c0 -113 1 -120 20 -120 18 0 20 7 20 60 0 53 2 60 20 60
18 0 20 -7 20 -60 0 -53 2 -60 20 -60 19 0 20 7 20 120 0 113 -1 120 -20 120
-17 0 -20 -7 -20 -40 0 -33 -3 -40 -20 -40 -17 0 -20 7 -20 40 0 33 -3 40 -20
40 -19 0 -20 -7 -20 -120z"/>
<path d="M1556 765 c-6 -17 -4 -18 62 -35 40 -10 50 -19 36 -33 -3 -3 -25 0
-49 8 -38 11 -45 11 -50 -3 -3 -8 -4 -16 -2 -18 2 -2 43 -14 93 -27 93 -26 94
-26 80 -81 -4 -18 -1 -25 14 -29 17 -4 22 3 35 45 8 28 12 54 9 59 -2 4 -21
11 -40 15 -31 6 -54 27 -42 39 2 2 28 -2 58 -10 30 -8 56 -15 58 -15 2 0 2 7
0 16 -2 14 -120 52 -254 84 -1 0 -5 -7 -8 -15z"/>
<path d="M2355 683 c-49 -14 -92 -27 -94 -29 -3 -2 0 -9 7 -16 8 -8 33 -5 96
11 47 11 87 21 90 21 3 0 8 -16 12 -35 4 -20 12 -35 20 -35 22 0 27 23 14 69
-13 49 -18 50 -145 14z"/>
</g>
</svg>
